<svg width="1053" height="117" viewBox="0 0 1053 117" fill="none" xmlns="http://www.w3.org/2000/svg">
<path d="M0 115.006V1.55107H48.9716C57.392 1.55107 64.7599 3.213 71.0753 6.53687C77.3906 9.86072 82.3026 14.5326 85.8111 20.5525C89.3196 26.5724 91.0739 33.6079 91.0739 41.659C91.0739 49.784 89.2642 56.8195 85.6449 62.7656C82.0625 68.7116 77.0213 73.2911 70.5213 76.5042C64.0582 79.7173 56.5057 81.3238 47.8636 81.3238H18.6136V57.392H41.6591C45.2784 57.392 48.3622 56.7641 50.9105 55.5085C53.4957 54.2158 55.4716 52.3877 56.8381 50.0241C58.2415 47.6604 58.9432 44.8721 58.9432 41.659C58.9432 38.409 58.2415 35.6391 56.8381 33.3494C55.4716 31.0227 53.4957 29.2499 50.9105 28.0312C48.3622 26.7755 45.2784 26.1477 41.6591 26.1477H30.8011V115.006H0ZM212.284 58.2783C212.284 70.909 209.828 81.5639 204.916 90.2428C200.004 98.8849 193.375 105.44 185.028 109.909C176.682 114.341 167.375 116.557 157.108 116.557C146.767 116.557 137.423 114.322 129.077 109.854C120.767 105.348 114.156 98.7741 109.244 90.132C104.369 81.4531 101.932 70.8352 101.932 58.2783C101.932 45.6477 104.369 35.0113 109.244 26.3693C114.156 17.6903 120.767 11.1349 129.077 6.70305C137.423 2.2343 146.767 -7.08103e-05 157.108 -7.08103e-05C167.375 -7.08103e-05 176.682 2.2343 185.028 6.70305C193.375 11.1349 200.004 17.6903 204.916 26.3693C209.828 35.0113 212.284 45.6477 212.284 58.2783ZM180.597 58.2783C180.597 51.4829 179.692 45.7585 177.882 41.105C176.109 36.4147 173.469 32.8692 169.96 30.4687C166.489 28.0312 162.205 26.8124 157.108 26.8124C152.011 26.8124 147.709 28.0312 144.2 30.4687C140.729 32.8692 138.088 36.4147 136.278 41.105C134.506 45.7585 133.619 51.4829 133.619 58.2783C133.619 65.0738 134.506 70.8167 136.278 75.507C138.088 80.1604 140.729 83.7059 144.2 86.1434C147.709 88.544 152.011 89.7443 157.108 89.7443C162.205 89.7443 166.489 88.544 169.96 86.1434C173.469 83.7059 176.109 80.1604 177.882 75.507C179.692 70.8167 180.597 65.0738 180.597 58.2783ZM226.535 115.006V1.55107H275.507C283.927 1.55107 291.295 3.08374 297.61 6.14908C303.926 9.21442 308.838 13.6278 312.346 19.3891C315.855 25.1505 317.609 32.0567 317.609 40.1079C317.609 48.2329 315.799 55.0837 312.18 60.6604C308.598 66.2371 303.556 70.4474 297.056 73.2911C290.593 76.1349 283.041 77.5568 274.399 77.5568H245.149V53.6249H268.194C271.814 53.6249 274.897 53.1818 277.446 52.2954C280.031 51.3721 282.007 49.9133 283.373 47.919C284.777 45.9246 285.478 43.321 285.478 40.1079C285.478 36.8579 284.777 34.2173 283.373 32.186C282.007 30.1178 280.031 28.6036 277.446 27.6434C274.897 26.6462 271.814 26.1477 268.194 26.1477H257.336V115.006H226.535ZM293.012 62.9317L321.376 115.006H287.916L260.217 62.9317H293.012ZM327.636 26.3693V1.55107H426.244V26.3693H392.119V115.006H361.761V26.3693H327.636ZM593.227 115.006V1.55107H672.999V26.3693H624.028V45.8692H668.124V70.6874H624.028V115.006H593.227ZM794.237 58.2783C794.237 70.909 791.781 81.5639 786.869 90.2428C781.957 98.8849 775.328 105.44 766.982 109.909C758.635 114.341 749.328 116.557 739.061 116.557C728.72 116.557 719.376 114.322 711.03 109.854C702.72 105.348 696.109 98.7741 691.197 90.132C686.322 81.4531 683.885 70.8352 683.885 58.2783C683.885 45.6477 686.322 35.0113 691.197 26.3693C696.109 17.6903 702.72 11.1349 711.03 6.70305C719.376 2.2343 728.72 -7.08103e-05 739.061 -7.08103e-05C749.328 -7.08103e-05 758.635 2.2343 766.982 6.70305C775.328 11.1349 781.957 17.6903 786.869 26.3693C791.781 35.0113 794.237 45.6477 794.237 58.2783ZM762.55 58.2783C762.55 51.4829 761.645 45.7585 759.835 41.105C758.062 36.4147 755.422 32.8692 751.913 30.4687C748.442 28.0312 744.158 26.8124 739.061 26.8124C733.964 26.8124 729.662 28.0312 726.153 30.4687C722.682 32.8692 720.041 36.4147 718.232 41.105C716.459 45.7585 715.572 51.4829 715.572 58.2783C715.572 65.0738 716.459 70.8167 718.232 75.507C720.041 80.1604 722.682 83.7059 726.153 86.1434C729.662 88.544 733.964 89.7443 739.061 89.7443C744.158 89.7443 748.442 88.544 751.913 86.1434C755.422 83.7059 758.062 80.1604 759.835 75.507C761.645 70.8167 762.55 65.0738 762.55 58.2783ZM808.488 115.006V1.55107H839.289V90.1874H885.159V115.006H808.488ZM928.411 1.55107V115.006H897.609V1.55107H928.411ZM1052.92 58.2783C1052.92 70.909 1050.46 81.5639 1045.55 90.2428C1040.64 98.8849 1034.01 105.44 1025.66 109.909C1017.31 114.341 1008.01 116.557 997.741 116.557C987.4 116.557 978.056 114.322 969.71 109.854C961.4 105.348 954.789 98.7741 949.877 90.132C945.002 81.4531 942.565 70.8352 942.565 58.2783C942.565 45.6477 945.002 35.0113 949.877 26.3693C954.789 17.6903 961.4 11.1349 969.71 6.70305C978.056 2.2343 987.4 -7.08103e-05 997.741 -7.08103e-05C1008.01 -7.08103e-05 1017.31 2.2343 1025.66 6.70305C1034.01 11.1349 1040.64 17.6903 1045.55 26.3693C1050.46 35.0113 1052.92 45.6477 1052.92 58.2783ZM1021.23 58.2783C1021.23 51.4829 1020.32 45.7585 1018.51 41.105C1016.74 36.4147 1014.1 32.8692 1010.59 30.4687C1007.12 28.0312 1002.84 26.8124 997.741 26.8124C992.644 26.8124 988.342 28.0312 984.833 30.4687C981.362 32.8692 978.721 36.4147 976.911 41.105C975.138 45.7585 974.252 51.4829 974.252 58.2783C974.252 65.0738 975.138 70.8167 976.911 75.507C978.721 80.1604 981.362 83.7059 984.833 86.1434C988.342 88.544 992.644 89.7443 997.741 89.7443C1002.84 89.7443 1007.12 88.544 1010.59 86.1434C1014.1 83.7059 1016.74 80.1604 1018.51 75.507C1020.32 70.8167 1021.23 65.0738 1021.23 58.2783Z" fill="#0060CE"/>
</svg>
